<svg id="download-icon" xmlns="http://www.w3.org/2000/svg" width="24" height="24" viewBox="0 0 24 24">
  <g id="Group_569" data-name="Group 569">
    <path id="Path_436" data-name="Path 436" d="M24,12A12,12,0,1,0,12,24,12.014,12.014,0,0,0,24,12ZM1.2,12A10.8,10.8,0,1,1,12,22.8,10.813,10.813,0,0,1,1.2,12Z" fill="#00e676"/>
    <path id="Path_437" data-name="Path 437" d="M168.326,137.66l3.316-3.316a.589.589,0,0,0-.832-.832l-2.31,2.31v-8.83a.592.592,0,1,0-1.184,0v8.825l-2.31-2.31a.589.589,0,0,0-.832.832l3.316,3.316a.6.6,0,0,0,.837,0Z" transform="translate(-155.907 -120.117)" fill="#00e676"/>
  </g>
</svg>
