<svg xmlns="http://www.w3.org/2000/svg" width="16" height="16.001" viewBox="0 0 16 16.001">
  <path id="link-icon" d="M8,0a8,8,0,1,0,8,8A8.009,8.009,0,0,0,8,0Zm6.014,6.395A4.047,4.047,0,0,1,11.72,8.263c0-.094,0-.189,0-.284a13.684,13.684,0,0,0-.9-5.119c-.078-.186-.158-.357-.239-.517A6.245,6.245,0,0,1,14.014,6.395ZM7.978,13.774c-.261,0-.724-.437-1.125-1.4a8.4,8.4,0,0,1-.413-1.314A13.043,13.043,0,0,0,8,11.157a12.958,12.958,0,0,0,1.51-.087A8.444,8.444,0,0,1,9.1,12.378C8.7,13.338,8.239,13.774,7.978,13.774ZM8,8.931a11.1,11.1,0,0,1-1.879-.154c-.014-.264-.022-.53-.022-.8a11.993,11.993,0,0,1,.751-4.4c.4-.96.864-1.4,1.125-1.4S8.7,2.62,9.1,3.579a11.993,11.993,0,0,1,.751,4.4c0,.271-.008.54-.022.806A11.142,11.142,0,0,1,8,8.931ZM5.355,2.368c-.078.153-.152.316-.226.492a13.684,13.684,0,0,0-.9,5.119c0,.088,0,.175,0,.262A3.988,3.988,0,0,1,1.99,6.383,6.254,6.254,0,0,1,5.355,2.368ZM1.932,9.38A8.1,8.1,0,0,0,4.45,10.643a11.276,11.276,0,0,0,.68,2.456q.123.3.255.548A6.247,6.247,0,0,1,1.932,9.38Zm8.627,4.293c.092-.176.181-.366.268-.574A11.24,11.24,0,0,0,11.5,10.66a8.153,8.153,0,0,0,2.562-1.27A6.248,6.248,0,0,1,10.559,13.672Z" fill="#fff"/>
</svg>
