<svg xmlns="http://www.w3.org/2000/svg" xmlns:xlink="http://www.w3.org/1999/xlink" width="16.5" height="16.403" viewBox="0 0 16.5 16.403">
  <defs>
    <clipPath id="clip-path">
      <rect id="Rectangle_576" data-name="Rectangle 576" width="16.5" height="16.403" fill="#fff"/>
    </clipPath>
  </defs>
  <g id="link-icon" transform="translate(-1)">
    <path id="Path_175" data-name="Path 175" d="M165.307,2.7l.8.8.868.868a1,1,0,0,0,.708.293h0a1,1,0,0,0,.708-1.71l-1.669-1.669A1,1,0,0,0,165.3,2.7l0,0Zm0,0" transform="translate(-158.671 -0.959)" fill="#fff"/>
    <path id="Path_176" data-name="Path 176" d="M99.3,68.711l.522.522,1.146,1.146h0l.41.41.006.006A1,1,0,1,0,102.8,69.38l-.413-.413,0,0-.956-.956-.711-.711h0a1,1,0,0,0-1.419,1.414l0,0Zm0,0" transform="translate(-94.807 -64.883)" fill="#fff"/>
    <g id="Group_44" data-name="Group 44" transform="translate(1)">
      <g id="Group_40" data-name="Group 40" transform="translate(0)" clip-path="url(#clip-path)">
        <path id="Path_177" data-name="Path 177" d="M33.294,134.754l1.7,1.7.005.005a1.025,1.025,0,0,0,1.451-1.449l-1.079-1.079-.631-.63a1.025,1.025,0,1,0-1.45,1.45l0,0Zm0,0" transform="translate(-31.955 -128.697)" fill="#fff"/>
      </g>
      <g id="Group_41" data-name="Group 41" transform="translate(0)" clip-path="url(#clip-path)">
        <path id="Path_178" data-name="Path 178" d="M1.575,235.055a1.021,1.021,0,0,0,.558.284l.013,0a1.026,1.026,0,0,0,.876-1.74L1.741,232.32a1.026,1.026,0,1,0-1.451,1.45l.006.006,1.276,1.275,0,0Zm0,0" transform="translate(-0.023 -224.513)" fill="#fff"/>
      </g>
      <g id="Group_42" data-name="Group 42" transform="translate(0)" clip-path="url(#clip-path)">
        <path id="Path_179" data-name="Path 179" d="M52.867,8.774a1.024,1.024,0,0,0-1.249-.157.485.485,0,0,1-.63-.118l-.028-.037A.484.484,0,0,1,51,7.822l.8-.8.008-.008a1.026,1.026,0,0,0-1.458-1.443.484.484,0,1,1-.685-.685,1.026,1.026,0,1,0-1.45-1.45.484.484,0,1,1-.685-.685A1.026,1.026,0,1,0,46.079,1.3l-.493.493.531.531a1.995,1.995,0,0,1-1.209,3.394,2,2,0,0,1-2.489,2.487,1.991,1.991,0,0,1-1.655,1.766,1.994,1.994,0,0,1-1.822,2.8h0l-.065,0-.793.793a.8.8,0,0,0-.222.617,1.085,1.085,0,0,0,.325.709l2.157,2.158a1.011,1.011,0,0,0,1.428,0l1.223-1.223.468-.126a5.577,5.577,0,0,0,5.367-1.438l2.751-2.751.006-.006,1.281-1.281a1.027,1.027,0,0,0,0-1.45Zm0,0" transform="translate(-36.667 -0.968)" fill="#fff"/>
      </g>
      <g id="Group_43" data-name="Group 43" transform="translate(0)" clip-path="url(#clip-path)">
        <path id="Path_180" data-name="Path 180" d="M335.428,376.69l-1.793,1.793a6.535,6.535,0,0,1-2.155,1.431l.671.671a1.011,1.011,0,0,0,1.428,0l2.158-2.157a.916.916,0,0,0,.2-1.226Zm0,0" transform="translate(-320.788 -364.503)" fill="#fff"/>
      </g>
    </g>
  </g>
</svg>
