<svg xmlns="http://www.w3.org/2000/svg" width="56" height="56" viewBox="0 0 56 56">
  <g id="links-bt-icon" transform="translate(-629 -295)">
    <rect id="Rectangle_772" data-name="Rectangle 772" width="56" height="56" rx="28" transform="translate(629 295)" fill="#fff"/>
    <g id="chain" transform="translate(647 314)">
      <g id="Group_606" data-name="Group 606">
        <path id="Path_442" data-name="Path 442" d="M4.445,154.122a4.408,4.408,0,0,1-3.152-7.535l3.792-3.792a4.429,4.429,0,0,1,6.255,0,4.509,4.509,0,0,1,1.28,2.807.74.74,0,0,1-1.477.1,2.936,2.936,0,0,0-5.023-1.871l-3.792,3.792a3,3,0,0,0,0,4.186,3,3,0,0,0,4.186,0L9.321,149a.731.731,0,1,1,1.034,1.034l-2.807,2.807A4.237,4.237,0,0,1,4.445,154.122Z" transform="translate(0 -135.951)" fill="#0d47a1"/>
        <path id="Path_443" data-name="Path 443" d="M166.013,32.516a4.431,4.431,0,0,1-3.152-1.28,4.509,4.509,0,0,1-1.28-2.807.74.74,0,1,1,1.477-.1A2.98,2.98,0,0,0,163.9,30.2a2.974,2.974,0,0,0,4.137,0l3.792-3.792a2.96,2.96,0,0,0-4.186-4.186l-2.807,2.807A.731.731,0,0,1,163.8,24l2.807-2.807a4.458,4.458,0,0,1,6.3,6.3l-3.792,3.792A4.395,4.395,0,0,1,166.013,32.516Z" transform="translate(-154.188 -19.908)" fill="#0d47a1"/>
      </g>
    </g>
  </g>
</svg>
