<svg id="link-icon" xmlns="http://www.w3.org/2000/svg" width="14.966" height="17" viewBox="0 0 14.966 17">
  <path id="Path_155" data-name="Path 155" d="M14.4,125.79H12.939l-.976-3.86a12.1,12.1,0,0,1-4.481.8A12.1,12.1,0,0,1,3,121.93l-.976,3.86H.564a.582.582,0,0,0-.564.6v.942a.582.582,0,0,0,.564.6H14.4a.582.582,0,0,0,.564-.6v-.942A.581.581,0,0,0,14.4,125.79Z" transform="translate(0 -110.928)" fill="#fff"/>
  <path id="Path_156" data-name="Path 156" d="M59.039,4.1,58.3,1.326A1.329,1.329,0,0,0,56.965,0H55.854a1.328,1.328,0,0,0-1.33,1.326L53.78,4.1a14.087,14.087,0,0,0,2.629.241A14.1,14.1,0,0,0,59.039,4.1Z" transform="translate(-48.927)" fill="#fff"/>
  <path id="Path_157" data-name="Path 157" d="M45.263,65.445,44.317,61.5a11.461,11.461,0,0,1-5.642,0l-.946,3.945a11.867,11.867,0,0,0,7.533,0Z" transform="translate(-34.014 -55.897)" fill="#fff"/>
</svg>
