<svg id="link-icon" xmlns="http://www.w3.org/2000/svg" width="18.487" height="15.95" viewBox="0 0 18.487 15.95">
  <path id="Path_181" data-name="Path 181" d="M17.591,0H.9A.9.9,0,0,0,0,.9V11.369a.9.9,0,0,0,.9.9H7.139v2.029H4.709a.828.828,0,1,0,0,1.656h9.067a.828.828,0,0,0,0-1.656H11.347V12.265h6.244a.9.9,0,0,0,.9-.9V.9a.9.9,0,0,0-.9-.9Zm-.448,10.922H1.343V1.343h15.8Zm0,0" fill="#fff"/>
  <path id="Path_182" data-name="Path 182" d="M70.317,78.178l2.824,1.313a.549.549,0,0,0,.78-.5v-.015a.55.55,0,0,0-.318-.5l-1.766-.82L73.6,76.84a.55.55,0,0,0,.318-.5v-.014a.55.55,0,0,0-.781-.5l-2.823,1.313a.552.552,0,0,0-.317.5v.039a.551.551,0,0,0,.317.5Zm0,0" transform="translate(-66.083 -71.54)" fill="#fff"/>
  <path id="Path_183" data-name="Path 183" d="M138.749,54.476a.55.55,0,0,0,.443.225h.014a.547.547,0,0,0,.523-.381l1.86-5.764a.549.549,0,0,0-.523-.716h-.014a.546.546,0,0,0-.523.381l-1.861,5.764a.552.552,0,0,0,.08.491Zm0,0" transform="translate(-130.886 -45.163)" fill="#fff"/>
  <path id="Path_184" data-name="Path 184" d="M190.311,76.333a.552.552,0,0,0,.318.5l1.766.821-1.766.82a.55.55,0,0,0-.318.5v.015a.549.549,0,0,0,.781.5l2.823-1.313a.552.552,0,0,0,.317-.5v-.039a.552.552,0,0,0-.318-.5l-2.823-1.313a.554.554,0,0,0-.527.035.546.546,0,0,0-.254.463v.015Zm0,0" transform="translate(-179.662 -71.531)" fill="#fff"/>
</svg>
