<svg xmlns="http://www.w3.org/2000/svg" width="16" height="13.303" viewBox="0 0 16 13.303">
  <g id="link-icon" transform="translate(1.902 -1.252)">
    <path id="Path_195" data-name="Path 195" d="M3.075,64.424H5.415l1.994,1.994a.836.836,0,0,0,1.182,0l1.994-1.994h2.341A3.078,3.078,0,0,0,16,61.349V56.435a3.078,3.078,0,0,0-3.075-3.075H3.075A3.078,3.078,0,0,0,0,56.435v4.914a3.078,3.078,0,0,0,3.075,3.075Zm1.273-6.178a1.071,1.071,0,0,1,1.515,0l1.271,1.271,3.3-3.3a1.071,1.071,0,1,1,1.515,1.515L7.891,61.789a1.071,1.071,0,0,1-1.514,0L4.349,59.761a1.071,1.071,0,0,1,0-1.515Zm.686.055" transform="translate(-1.902 -52.108)" fill="#fff"/>
  </g>
</svg>
