<svg xmlns="http://www.w3.org/2000/svg" width="20.911" height="19.801" viewBox="0 0 20.911 19.801">
  <path id="login-icon" d="M409.791,6473.9h.819c-.192.008-.305.011-.409.011S409.944,6473.908,409.791,6473.9Zm-7.282,0h.76c-.107.006-.245.01-.38.01S402.641,6473.906,402.509,6473.9Zm12.39-6.241a3.922,3.922,0,0,0-1.35-2.923,4.958,4.958,0,0,0-2.959-1.235,8.486,8.486,0,0,0-1.534-1.859c.062-.13.123-.276.184-.434a2.611,2.611,0,1,0,.959-5.039,2.562,2.562,0,0,0-.957.182,6.7,6.7,0,0,0-1.035-1.8,4.64,4.64,0,0,1,1.992-.442,4.7,4.7,0,0,1,4.7,4.689,4.636,4.636,0,0,1-1.427,3.363,6.223,6.223,0,0,1,3.527,5.488v.007a1.05,1.05,0,1,1-2.1,0Zm-7.31,0h0a3.919,3.919,0,0,0-1.378-2.947,4.98,4.98,0,0,0-3.323-1.223,4.463,4.463,0,0,0-4.7,4.17h0a1.05,1.05,0,0,1-2.091.142v.148h0c0-.091-.007-.184-.008-.274,0-.006,0-.011,0-.017s0,0,0,0,0,0,0-.006a6.213,6.213,0,0,1,3.526-5.485,4.645,4.645,0,0,1-1.425-3.365,4.7,4.7,0,0,1,9.4,0,4.642,4.642,0,0,1-1.427,3.365,6.216,6.216,0,0,1,3.527,5.485v.01h0a1.05,1.05,0,0,1-2.1,0Zm-7.329-8.881a2.62,2.62,0,1,0,2.619-2.609A2.618,2.618,0,0,0,400.261,6458.78Z" transform="translate(-396.09 -6454.11)" fill="#fff" opacity="0.6"/>
</svg>
