<svg xmlns="http://www.w3.org/2000/svg" width="14" height="14" viewBox="0 0 14 14">
  <path id="outer-link-icon" d="M13.277,8.544,11.494,6.759a2.487,2.487,0,0,0-3.534.034l-.755-.754a2.417,2.417,0,0,0,.755-1.794A2.368,2.368,0,0,0,7.249,2.5L5.481.729A2.353,2.353,0,0,0,3.731,0,2.366,2.366,0,0,0,1.99.712L.729,1.965A2.341,2.341,0,0,0,0,3.706a2.38,2.38,0,0,0,.721,1.75L2.5,7.241a2.383,2.383,0,0,0,1.75.721,2.4,2.4,0,0,0,1.785-.755l.754.755a2.411,2.411,0,0,0-.754,1.792A2.366,2.366,0,0,0,6.751,11.5l1.767,1.775a2.475,2.475,0,0,0,3.491.017l1.261-1.253A2.343,2.343,0,0,0,14,10.294a2.384,2.384,0,0,0-.723-1.75ZM6.039,4.872,5.88,4.709c-.088-.092-.15-.153-.184-.184s-.089-.074-.163-.129a.7.7,0,0,0-.218-.112.88.88,0,0,0-.236-.03.822.822,0,0,0-.824.824.88.88,0,0,0,.03.236.664.664,0,0,0,.112.218,1.813,1.813,0,0,0,.129.163c.032.034.093.1.184.184l.163.159a.828.828,0,0,1-.619.266.792.792,0,0,1-.583-.232L1.887,4.289a.8.8,0,0,1-.24-.583.779.779,0,0,1,.24-.574L3.148,1.879a.831.831,0,0,1,.583-.232.8.8,0,0,1,.583.241L6.081,3.664a.791.791,0,0,1,.24.583.825.825,0,0,1-.282.625Zm6.072,6-1.261,1.253a.827.827,0,0,1-.583.222.792.792,0,0,1-.583-.232L7.917,10.336a.789.789,0,0,1-.24-.583.829.829,0,0,1,.283-.626l.159.163c.088.091.15.153.184.184a1.813,1.813,0,0,0,.163.129.69.69,0,0,0,.218.112.88.88,0,0,0,.236.03.818.818,0,0,0,.823-.823.88.88,0,0,0-.03-.236A.718.718,0,0,0,9.6,8.469a2.029,2.029,0,0,0-.129-.163c-.032-.034-.093-.1-.184-.184l-.163-.158a.817.817,0,0,1,.617-.275.794.794,0,0,1,.583.24l1.783,1.785a.793.793,0,0,1,.241.583.767.767,0,0,1-.238.572Zm0,0" fill="#fff"/>
</svg>
