<svg xmlns="http://www.w3.org/2000/svg" width="50" height="50" viewBox="0 0 50 50">
  <g id="select-icon" transform="translate(-580 -686)">
    <rect id="Rectangle_772" data-name="Rectangle 772" width="50" height="50" rx="25" transform="translate(580 686)" fill="#fff"/>
    <path id="Path_382" data-name="Path 382" d="M26.2,33.584a.772.772,0,0,0-1,0L16.41,41.4l-8.8-7.817a.772.772,0,0,0-1,0,.579.579,0,0,0,0,.887l9.286,8.246a.737.737,0,0,0,.5.184.769.769,0,0,0,.5-.184l9.286-8.246a.568.568,0,0,0,.017-.887Z" transform="translate(588.6 673.6)" fill="#0d47a1"/>
  </g>
</svg>
