<svg xmlns="http://www.w3.org/2000/svg" width="26" height="27.065" viewBox="0 0 26 27.065">
  <path id="sinda-logo" d="M26,18.38s0-.008,0-.012,0-.008,0-.012V16.687l-.01-.011V4.725h0V3a.235.235,0,0,0-.235-.235H19.811A.235.235,0,0,0,19.576,3V5.158a.235.235,0,0,0,.235.235h3.117V10.5H19.811a.235.235,0,0,0-.235.235v2.152a.235.235,0,0,0,.235.235h3.117v3.855a29.268,29.268,0,0,1-5.8,1.1V.242A.241.241,0,0,0,16.886,0h-2.4a.241.241,0,0,0-.242.242V18.261c-.411.011-.826.019-1.246.019s-.812-.007-1.211-.018V.242A.241.241,0,0,0,11.546,0h-2.4A.241.241,0,0,0,8.9.242V18.085a29.306,29.306,0,0,1-5.844-1.11V13.122H6.177a.235.235,0,0,0,.235-.235V10.734a.235.235,0,0,0-.235-.235H3.06V5.391H6.177a.235.235,0,0,0,.235-.235V3a.235.235,0,0,0-.235-.235H.235A.235.235,0,0,0,0,3V18.46H.011a.5.5,0,0,0,.232.339,7.636,7.636,0,0,0,2.605,1.352h.007V18.46h0v1.684A28.919,28.919,0,0,0,8.9,21.318v5.5a.241.241,0,0,0,.242.242h2.4a.241.241,0,0,0,.242-.242V21.494c.4.011.8.018,1.211.018s.835-.007,1.246-.019v5.329a.241.241,0,0,0,.242.242h2.4a.241.241,0,0,0,.242-.242V21.312a28.828,28.828,0,0,0,6.014-1.17V18.46h0v1.691h.007a7.632,7.632,0,0,0,2.618-1.358.509.509,0,0,0,.23-.4.031.031,0,0,1,0-.006v-.01Z" fill="#fff"/>
</svg>
