<svg xmlns="http://www.w3.org/2000/svg" width="148" height="23.477" viewBox="0 0 148 23.477">
  <g id="taipower-name" transform="translate(0.01 -0.01)">
    <path id="Path_17" data-name="Path 17" d="M11.278,9.441c.507.83-.611,1.335-1.221,1.568-2.488.323-4.162,2.677-5.633,4.43a.739.739,0,0,0,.255.971c3.094-1.524,5.987-3.415,9.891-3.094a1,1,0,0,0,.206-1.43c-.305-.738-2.591-.415-1.219-1.568.608-.463,1.469-.973,2.231-.417,2.488,1.2,2.183,4.017,2.541,6.094a1.767,1.767,0,0,1-1.93.415,3.325,3.325,0,0,0-3.654-1.34A33.4,33.4,0,0,0,3.611,18.95a4.469,4.469,0,0,1-3.193-.738c-.257-.507-.661-.925-.257-1.478A45.152,45.152,0,0,1,8.23,8.657,4.21,4.21,0,0,1,11.278,9.441Z" transform="translate(0 -6.71)" fill="#fff"/>
    <path id="Path_18" data-name="Path 18" d="M33.707,56.2c.257.878-.606,1.8.2,2.444-.4,1.386-1.88,1.711-2.892,2.677-2.51.417-5.835.832-7.458-1.243.406-1.2-1.221-1.939-.356-3.1a54.659,54.659,0,0,1,7.205-2.306C31.829,54.4,32.846,55.368,33.707,56.2Zm-7.1,1.57a1.522,1.522,0,0,0,.257,1.522c1.421.371,2.585-.461,3.8-.968.154-.6.76-1.155.356-1.8A6.036,6.036,0,0,0,26.6,57.771Z" transform="translate(-17.916 -40.514)" fill="#fff"/>
    <g id="Group_6" data-name="Group 6" transform="translate(26.339 0.01)">
      <path id="Path_19" data-name="Path 19" d="M140.974.7c0,.457-.67,1.236.1,1.513,1.236-.505,2.73-1.1,4.118-.549,1.131.962-1.081,1.19-1.388,1.97-1.493-.826-2.934.505-4.168,1.239-.617-.046-1.388-.275-1.491-.872.1-1.463-.514-3.483,1.491-3.986C140.1.236,140.974-.038,140.974.7Z" transform="translate(-131.452 -0.01)" fill="#fff"/>
      <path id="Path_20" data-name="Path 20" d="M112.6,13.557c-.463.415-1.234.187-1.7,0-.413-.687-1.75-1.192-1.232-2.062.459-.551,1.131-1.421,1.952-1.1C111.78,11.495,112.856,12.321,112.6,13.557Z" transform="translate(-109.151 -8.06)" fill="#fff"/>
      <path id="Path_21" data-name="Path 21" d="M125.522,18.577c-.1,2.1-2.471,2.414-3.707,3.594-.253.873,1.133,1.792.108,2.719-.466.767-1.289,1.539-.979,2.463,1.03,1.025,3.294,1.229,3.088,3.178-.257,1.59-.31,3.232-1.491,4.464a10.716,10.716,0,0,1-7.77,1.436c-.209-.46.305-.769.619-.973,1.95-.514,4.68-.152,5.552-2.566-.051-1.025.668-2.207-.1-3.077-.771-.821-2.007-.465-2.73-1.234-.154-1.539,2.422-2.925.622-4.053-.824.052-1.6,1.182-2.367.206.156-2.362,2.985-1.949,4.32-3.284a2.2,2.2,0,0,0,.977-1.745c-2.365-1.128-4.322,1.236-6.171,2.566-.929.41-1.8-1.384-2.315.155a42.073,42.073,0,0,0-.257,8.468,1.816,1.816,0,0,1-2.108.511c-1.752-1.949-1.493-4.722-3.088-6.772a3.091,3.091,0,0,1,1.594-2.721c.466-.1,1.03.155,1.03.617.307,1.539-.876,3.537.821,4.206.567-1.588.463-3.385,1.03-4.926,1.544-.408,2.363-3.385,4.322-2,.872-.767,1.746-2.77,3.549-1.848,1.744,1.745,2.313-2.615,4.32-.612Z" transform="translate(-107.72 -13.12)" fill="#fff"/>
    </g>
    <path id="Path_22" data-name="Path 22" d="M234.472,37.311c.145.4-.189.729-.569.85a2.431,2.431,0,0,1-1.944-.771,1.059,1.059,0,0,1,.659-.769A2.078,2.078,0,0,1,234.472,37.311Z" transform="translate(-175.902 -27.705)" fill="#fff"/>
    <path id="Path_23" data-name="Path 23" d="M223.8,5.473c-.242,1.681-3.628,1.039-2.526,3.422,2.161.174,5.148-1.073,6.85.544.718.794,1.862,1.71,1.386,2.761-1.015.791-1.9,2.068-3.316,2.146a1.385,1.385,0,0,1-1.026-.63c.112-1.034,2.328-1.891,1.221-3.1a5.227,5.227,0,0,0-5.115.63c.373,1.3-.556,2.822.538,3.741,1.388-.617-.406-3.163,1.761-2.842a1.7,1.7,0,0,1,.718,1.967c-.292.458-.848.98-.4,1.541,1.671,1.031-.5,2.82.661,4.223.031,1.759-3.58-.191-2.679,2.254,1.322,1.347,3.49.492,5.233.781.3.767.244,1.9-.8,2.153-2.108-.277-4.968.377-5.857-1.921.971-1.771-3.246-2.117-.571-3.346.143-.353-.18-.529-.4-.713-.973.4-.841,2.2-2.293,1.448a1.722,1.722,0,0,1-.975-1.852c.228-1.874,2.475-2.1,3.626-3.388-.52-1,.29-2.856-.955-3.667-1.665.341-3.129,1.548-4.812,1.546-.7.674-.018,1.859-.889,2.4-1.14.306-1.764-.732-2.567-1.127a4.89,4.89,0,0,1,2.451-3.809c.419-.024.885-.149,1.168.274.07.439-.586.965.059,1.318,1.188-1.487,3.127-1.644,4.774-2.276.663-.524.305-1.436.072-2.009-1.089-.867-3.575-.093-3.5-1.908,1.05-1.085,2.829-.108,4.008-.713C220.894,5.147,222.888,3.91,223.8,5.473Zm-2.348,11.979a.633.633,0,0,0,.863.539.824.824,0,0,0,.384-.855C222.457,16.514,221.254,16.683,221.449,17.452Zm-2.172-.255a.5.5,0,0,0-.371.669c.066.213.34.125.531.115.448.154.441-.336.373-.541C219.855,17.109,219.453,17.187,219.277,17.2Z" transform="translate(-159.05 -3.654)" fill="#fff"/>
    <path id="Path_24" data-name="Path 24" d="M338.108,5.9a17.358,17.358,0,0,0-.264,2.932c1.691.669,4.23.824,4.542,3.089.108,3.6.373,7.716-3.169,9.407a2.487,2.487,0,0,1-2.537-.152c-.318-.257-.584-.566-.474-.976.793-1.13,2.642-.206,3.169-1.748.318-2.317,1.056-4.729-.158-6.889a2.249,2.249,0,0,0-1.373-.623c-1.746,4.217-1.006,9.415-4.069,13.068-.9.927-1.851,2.108-3.279,1.233a5.105,5.105,0,0,1-1.006-.824c1.957-1.748,3.966-3.957,4.55-6.426.369-2.008,1.425-4.063,1-6.068-.788-.466-2.056.664-2.905-.257a1.008,1.008,0,0,1-.632-.978c.9-1.236,2.8-.515,3.7-1.594.158-1.13-.951-2.211,0-3.19A2.113,2.113,0,0,1,338.108,5.9Z" transform="translate(-249.238 -4.15)" fill="#fff"/>
    <path id="Path_25" data-name="Path 25" d="M492.38,21.018a3.032,3.032,0,0,1-.362,2.55,4.621,4.621,0,0,1-2.473-.949,9.5,9.5,0,0,1-1.755-4.858c1.34-1.247,2.681.769,3.966,1.419Z" transform="translate(-369.718 -13.012)" fill="#fff"/>
    <path id="Path_26" data-name="Path 26" d="M432.62,24.686c.151,3.2-1.753,5.747-2.991,8.532-.514.707-1.34,1.48-2.216.949-3.094-2.73,1.856-4.506,2.473-6.933C430.453,26.1,431.125,24.031,432.62,24.686Z" transform="translate(-323.079 -18.178)" fill="#fff"/>
    <path id="Path_27" data-name="Path 27" d="M455.961,32.627c.567,2.194-2.732,2.725-1.6,4.682a1.588,1.588,0,0,0,1.6-1.3c-.156-1.006.619-1.421,1.34-1.421,2.163.121,3.4,2.846,4.223,4.737-.1.714-.874,1.07-1.335,1.425-1.6.235-1.445-2.016-2.631-2.607-2.163,1.008-4.069,3.5-6.648,2.31a1.613,1.613,0,0,1-.415-2.427c1.858-1.959,2.886-4.388,4.124-6.522C455.342,31.327,455.548,32.092,455.961,32.627Z" transform="translate(-340.62 -23.349)" fill="#fff"/>
    <path id="Path_28" data-name="Path 28" d="M570.855,11.646c2.091,2.12,1.146,5.487,1.722,8.229-.99,3.209,1.985,9.111-2.976,9.575a15.658,15.658,0,0,1-7.667-1.4c-.105-.309.264-.415.417-.62,2.5-.519,6.366,1.344,7.618-1.6,0-4.244.156-8.641-.889-12.527-.518-1.292-1.981-1.24-3.13-1.035-1.772-.361-3.753,2.745-4.851,0-.108-2.688,2.974-.41,4.383-1.448C567.256,10.663,569.549,9.885,570.855,11.646Z" transform="translate(-424.588 -8.197)" fill="#fff"/>
    <path id="Path_29" data-name="Path 29" d="M546.774,27.767c-2.659,1.818-6.105,2.284-9.285,3.121-.995-.327-2.4-.512-2.769-1.537,1.1-.793,2.4.094,3.657-.325,2.657-.654,5.163-1.539,8.137-1.586Z" transform="translate(-404.004 -20.697)" fill="#fff"/>
    <path id="Path_30" data-name="Path 30" d="M555.522,40.283c-.156,1.118-.99,2.374.628,3.024.156.327-.211.56-.472.657-1.722.233-3.547.184-4.748,1.443-1.463,0-3.079-.187-3.65-1.537.154-.791-.419-2.049.727-2.233,2.5-.373,4.491-2.982,7.3-1.68Zm-4.228.883a1.68,1.68,0,0,0-1.146,1.676c.211.558.839.6,1.41.558a1.784,1.784,0,0,0,1.252-1.768C552.551,41.166,551.87,41.166,551.295,41.166Z" transform="translate(-413.797 -29.713)" fill="#fff"/>
  </g>
</svg>
