<svg xmlns="http://www.w3.org/2000/svg" width="85" height="85" viewBox="0 0 85 85">
  <g id="taipower_logo" transform="translate(-85 -130)">
    <circle id="Ellipse_10" data-name="Ellipse 10" cx="42.5" cy="42.5" r="42.5" transform="translate(85 130)" fill="#fff"/>
    <g id="Group_12" data-name="Group 12" transform="translate(89 134)">
      <path id="Path_1" data-name="Path 1" d="M47.635,254.819A38.224,38.224,0,0,1,85.86,216.593h0a38.225,38.225,0,0,1,38.225,38.226h0A38.224,38.224,0,0,1,85.86,293.043h0a38.223,38.223,0,0,1-38.225-38.224Zm12.517-25.708A36.238,36.238,0,0,0,49.5,254.819h0a36.237,36.237,0,0,0,10.65,25.708h0A36.233,36.233,0,0,0,85.86,291.175h0a36.232,36.232,0,0,0,25.707-10.649h0a36.235,36.235,0,0,0,10.65-25.708h0a36.235,36.235,0,0,0-10.65-25.708h0a36.235,36.235,0,0,0-25.707-10.65h0a36.237,36.237,0,0,0-25.708,10.65Z" transform="translate(-47.635 -216.593)" fill="#094f94"/>
      <path id="Path_2" data-name="Path 2" d="M53.4,257.258a34.9,34.9,0,0,1,34.9-34.9h0a34.9,34.9,0,0,1,34.9,34.9h0a34.9,34.9,0,0,1-34.9,34.9h0a34.9,34.9,0,0,1-34.9-34.9Zm11.428-23.471a33.085,33.085,0,0,0-9.722,23.471h0a33.084,33.084,0,0,0,9.722,23.47h0a33.079,33.079,0,0,0,23.47,9.722h0a33.078,33.078,0,0,0,23.469-9.722h0a33.084,33.084,0,0,0,9.722-23.47h0a33.085,33.085,0,0,0-9.722-23.471h0A33.076,33.076,0,0,0,88.3,224.064h0a33.078,33.078,0,0,0-23.47,9.722Z" transform="translate(-50.157 -219.115)" fill="#094f94"/>
      <path id="Path_3" data-name="Path 3" d="M59.163,259.778a31.656,31.656,0,0,1,31.656-31.656h0a31.655,31.655,0,0,1,31.655,31.656h0a31.657,31.657,0,0,1-31.655,31.656h0a31.658,31.658,0,0,1-31.656-31.656Zm10.365-21.29a30.009,30.009,0,0,0-8.818,21.29h0a30.007,30.007,0,0,0,8.818,21.29h0a30.01,30.01,0,0,0,21.291,8.818h0a30.006,30.006,0,0,0,21.29-8.818h0a30.014,30.014,0,0,0,8.819-21.29h0a30.016,30.016,0,0,0-8.819-21.29h0a30.011,30.011,0,0,0-21.29-8.819h0a30.015,30.015,0,0,0-21.291,8.819Z" transform="translate(-52.677 -221.636)" fill="#094f94"/>
      <path id="Path_4" data-name="Path 4" d="M118.831,316.335l16.328-22.8v4.312l7.291-9.447-1.129,4.211,6.264-5.135-8.626,11.912-.205-2.362-7.085,9.652.1-4.517Z" transform="translate(-79.972 -248.794)" fill="red"/>
      <path id="Path_5" data-name="Path 5" d="M118.284,232.54l16.636,23-.206-4.313,7.394,9.139-.924-4.21,6.161,5.237-8.934-12.323v2.67l-7.188-9.653.205,4.313Z" transform="translate(-79.733 -223.568)" fill="red"/>
      <path id="Path_6" data-name="Path 6" d="M92.646,232.723l-16.328,23.1V251.72l-7.188,9.139.822-4.21-6.059,5.237,8.626-12.22v2.567l7.291-9.858L79.5,247.2Z" transform="translate(-54.746 -223.648)" fill="red"/>
      <path id="Path_7" data-name="Path 7" d="M63.893,287.3l6.367,5.546-1.13-4.417,7.394,9.14-.205-4.107,16.533,22.8L79.809,302.186l.205,4.519-7.291-9.756v2.67Z" transform="translate(-54.746 -248.714)" fill="red"/>
      <path id="Exclusion_2" data-name="Exclusion 2" d="M12.971,33.554v0l-1.5-3.321-.005-8.053-3.515.015L3.859,12.971h7.559l0-7.248-3.907.015,2.368,5.62-2.194.014L5.2,5.789H3.216l2.352,5.583H3.3L0,3.7H11.418l0-1.649L.589,2.037,1.5,0H23.96l.8,2.037H13.455V3.675l11.909.015-3.239,7.654-2.034-.029,2.353-5.606H20.092l-2.349,5.655H15.437l2.476-5.625-4.445-.015-.014,7.218,8,.028-3.768,9.222H13.561v4.824l1.179-3.11h2.252l-4.02,9.646ZM8.694,18.547l.8,1.715,1.91.014.028-1.714Zm4.771,0,0,1.7,2.862.015L17,18.547Zm0-3.539,0,1.564,4.358.015.73-1.579Zm-6.325-.054.75,1.609h3.537V14.954Z" transform="translate(25.589 33.794)" fill="#094f94" stroke="rgba(0,0,0,0)" stroke-width="1"/>
      <path id="Exclusion_1" data-name="Exclusion 1" d="M20.218,8.686H0L3.785,0H16.329l3.888,8.685ZM5.152,2.011,3.223,6.594H17.052l-2.01-4.583Z" transform="translate(28.166 23.48)" fill="#094f94" stroke="rgba(0,0,0,0)" stroke-width="1"/>
      <path id="Path_15" data-name="Path 15" d="M112.468,233.339l-5.548,12.7h11.015l-3.3-7.558-1.126,2.493,1.367,3.055h-4.9l3.618-7.96Z" transform="translate(-74.165 -223.917)" fill="#094f94"/>
    </g>
  </g>
</svg>
